<?xml version="1.0" ?>
<!-- Uploaded to: SVG Repo, www.svgrepo.com, Generator: SVG Repo Mixer Tools -->
<svg width="800px" height="800px" viewBox="0 0 32 32" xmlns="http://www.w3.org/2000/svg">
<defs>
<style>.cls-1{fill:#005792;}</style>
</defs>
<title/>
<g id="Stars">
<path class="cls-1" d="M28,14.63a.67.67,0,0,1-.35.59l-5,2.45a.12.12,0,0,0-.06.16l3.2,9.33a.61.61,0,0,1-.15.65.61.61,0,0,1-.44.19.48.48,0,0,1-.2,0l-1.82-.63a.11.11,0,0,1-.08-.08l-.49-1.46-2.76-9.61a.13.13,0,0,1,.07-.16l1.71-.86a.34.34,0,0,0,0-.62l-2.62-.88a1.1,1.1,0,0,1-.63-.51L15,7.36l-.67-1.18a.17.17,0,0,1,0-.14l1.11-1.76a.61.61,0,0,1,.25-.23.67.67,0,0,1,.81.23l4.3,6.79a.09.09,0,0,0,.06.06l6.73,2.93A.62.62,0,0,1,28,14.63Z"/>
<path d="M27.62,14.06l-6.77-3L16.53,4.28a.67.67,0,0,0-.81-.23.61.61,0,0,0-.25.23L14.32,6.11l-3.17,5-6.77,3a.62.62,0,0,0-.38.57.67.67,0,0,0,.35.59l4.59,2.24L5.6,27.16a.63.63,0,0,0,.16.65A.57.57,0,0,0,6.4,28l9.28-3.23,7.05,2.45.36.13L25,28a.48.48,0,0,0,.2,0,.61.61,0,0,0,.44-.19.61.61,0,0,0,.15-.65l-3.24-9.44,5.13-2.5a.67.67,0,0,0,.35-.59A.62.62,0,0,0,27.62,14.06Zm-6.16,2.76a.63.63,0,0,0-.32.78l3,8.73-1.57-.54-.3-.11-6.39-2.22a.58.58,0,0,0-.41,0L7.22,26.33l3.1-9a.63.63,0,0,0-.32-.78L6.15,14.68l5.68-2.48a.6.6,0,0,0,.28-.24L15,7.36l1-1.55.48.75L19.89,12a.6.6,0,0,0,.28.24l5.68,2.48Z"/>
</g>
</svg>